<mxfile host="app.diagrams.net" modified="2021-04-21T09:28:49.492Z" agent="5.0 (Macintosh; Intel Mac OS X 11_2_3) AppleWebKit/537.36 (KHTML, like Gecko) Chrome/88.0.4324.182 Safari/537.36" etag="jcTIZTm7LdTGZw_a9zyX" version="14.6.3" type="github">
  <diagram id="q73k7JcxZBseWhLGRYoN" name="第 1 页">
    <mxGraphModel dx="1426" dy="769" grid="1" gridSize="10" guides="1" tooltips="1" connect="1" arrows="1" fold="1" page="1" pageScale="1" pageWidth="827" pageHeight="1169" math="0" shadow="0">
      <root>
        <mxCell id="0" />
        <mxCell id="1" parent="0" />
        <mxCell id="tkVCvct7On3iAIjhd6e2-12" value="" style="endArrow=none;dashed=1;html=1;startArrow=none;" edge="1" parent="1" source="tkVCvct7On3iAIjhd6e2-8">
          <mxGeometry width="50" height="50" relative="1" as="geometry">
            <mxPoint x="100" y="740" as="sourcePoint" />
            <mxPoint x="100" y="10" as="targetPoint" />
          </mxGeometry>
        </mxCell>
        <mxCell id="tkVCvct7On3iAIjhd6e2-13" value="" style="endArrow=classic;html=1;" edge="1" parent="1">
          <mxGeometry width="50" height="50" relative="1" as="geometry">
            <mxPoint x="110" y="210" as="sourcePoint" />
            <mxPoint x="356" y="210" as="targetPoint" />
          </mxGeometry>
        </mxCell>
        <mxCell id="tkVCvct7On3iAIjhd6e2-8" value="" style="rounded=0;whiteSpace=wrap;html=1;direction=west;" vertex="1" parent="1">
          <mxGeometry x="90" y="170" width="20" height="180" as="geometry" />
        </mxCell>
        <mxCell id="tkVCvct7On3iAIjhd6e2-17" value="" style="endArrow=none;dashed=1;html=1;" edge="1" parent="1" target="tkVCvct7On3iAIjhd6e2-8">
          <mxGeometry width="50" height="50" relative="1" as="geometry">
            <mxPoint x="100" y="740" as="sourcePoint" />
            <mxPoint x="100" y="10" as="targetPoint" />
          </mxGeometry>
        </mxCell>
        <mxCell id="tkVCvct7On3iAIjhd6e2-14" value="前端通过getSetting的is_realverify&lt;br&gt;判断是否需要打开防沉迷界面" style="text;html=1;align=center;verticalAlign=middle;resizable=0;points=[];autosize=1;strokeColor=none;" vertex="1" parent="1">
          <mxGeometry x="10" y="130" width="190" height="30" as="geometry" />
        </mxCell>
        <mxCell id="tkVCvct7On3iAIjhd6e2-18" value="is_realverify=1" style="text;html=1;align=center;verticalAlign=middle;resizable=0;points=[];autosize=1;strokeColor=none;" vertex="1" parent="1">
          <mxGeometry x="175" y="190" width="90" height="20" as="geometry" />
        </mxCell>
        <mxCell id="tkVCvct7On3iAIjhd6e2-5" value="登录后" style="rounded=0;whiteSpace=wrap;html=1;" vertex="1" parent="1">
          <mxGeometry x="50" y="60" width="100" height="20" as="geometry" />
        </mxCell>
        <mxCell id="tkVCvct7On3iAIjhd6e2-20" value="" style="endArrow=none;dashed=1;html=1;" edge="1" parent="1">
          <mxGeometry width="50" height="50" relative="1" as="geometry">
            <mxPoint x="390" y="740" as="sourcePoint" />
            <mxPoint x="390" y="10" as="targetPoint" />
          </mxGeometry>
        </mxCell>
        <mxCell id="tkVCvct7On3iAIjhd6e2-19" value="" style="rounded=0;whiteSpace=wrap;html=1;direction=west;" vertex="1" parent="1">
          <mxGeometry x="380" y="170" width="20" height="100" as="geometry" />
        </mxCell>
        <mxCell id="tkVCvct7On3iAIjhd6e2-21" value="" style="endArrow=classic;html=1;" edge="1" parent="1">
          <mxGeometry width="50" height="50" relative="1" as="geometry">
            <mxPoint x="110" y="310" as="sourcePoint" />
            <mxPoint x="630" y="310" as="targetPoint" />
          </mxGeometry>
        </mxCell>
        <mxCell id="tkVCvct7On3iAIjhd6e2-23" value="" style="endArrow=none;dashed=1;html=1;" edge="1" parent="1">
          <mxGeometry width="50" height="50" relative="1" as="geometry">
            <mxPoint x="650" y="730" as="sourcePoint" />
            <mxPoint x="650" y="20" as="targetPoint" />
          </mxGeometry>
        </mxCell>
        <mxCell id="tkVCvct7On3iAIjhd6e2-25" value="is_realverify=2" style="text;html=1;align=center;verticalAlign=middle;resizable=0;points=[];autosize=1;strokeColor=none;" vertex="1" parent="1">
          <mxGeometry x="175" y="280" width="90" height="20" as="geometry" />
        </mxCell>
        <mxCell id="tkVCvct7On3iAIjhd6e2-26" value="&lt;p class=&quot;MsoNormal&quot; style=&quot;margin: 0pt 0pt 0.0001pt ; text-align: justify ; font-family: &amp;#34;calibri&amp;#34; ; font-size: 10.5pt&quot;&gt;&lt;span style=&quot;font-size: 10.5pt&quot;&gt;http://&lt;/span&gt;&lt;span style=&quot;font-size: 10.5pt&quot;&gt;d&lt;/span&gt;&lt;span style=&quot;font-size: 10.5pt&quot;&gt;.fire2333.com/&lt;/span&gt;&lt;span style=&quot;font-size: 10.5pt&quot;&gt;xdpt/&lt;/span&gt;&lt;span style=&quot;font-size: 10.5pt&quot;&gt;util/realverify&lt;/span&gt;&lt;span style=&quot;font-size: 10.5pt&quot;&gt;/&lt;/span&gt;&lt;span style=&quot;font-size: 10.5pt&quot;&gt;{gameId}&lt;/span&gt;&lt;/p&gt;" style="text;html=1;align=center;verticalAlign=middle;resizable=0;points=[];autosize=1;strokeColor=none;" vertex="1" parent="1">
          <mxGeometry x="239" y="130" width="350" height="20" as="geometry" />
        </mxCell>
        <mxCell id="tkVCvct7On3iAIjhd6e2-6" value="防沉迷界面" style="rounded=0;whiteSpace=wrap;html=1;" vertex="1" parent="1">
          <mxGeometry x="340" y="60" width="100" height="20" as="geometry" />
        </mxCell>
        <mxCell id="tkVCvct7On3iAIjhd6e2-7" value="进入游戏" style="rounded=0;whiteSpace=wrap;html=1;" vertex="1" parent="1">
          <mxGeometry x="600" y="60" width="100" height="20" as="geometry" />
        </mxCell>
        <mxCell id="tkVCvct7On3iAIjhd6e2-27" value="" style="endArrow=classic;html=1;" edge="1" parent="1">
          <mxGeometry width="50" height="50" relative="1" as="geometry">
            <mxPoint x="400" y="205" as="sourcePoint" />
            <mxPoint x="630" y="204" as="targetPoint" />
          </mxGeometry>
        </mxCell>
        <mxCell id="tkVCvct7On3iAIjhd6e2-28" value="code=0" style="text;html=1;align=center;verticalAlign=middle;resizable=0;points=[];autosize=1;strokeColor=none;" vertex="1" parent="1">
          <mxGeometry x="480" y="180" width="60" height="20" as="geometry" />
        </mxCell>
        <mxCell id="tkVCvct7On3iAIjhd6e2-29" value="" style="endArrow=classic;html=1;exitX=0;exitY=0;exitDx=0;exitDy=0;" edge="1" parent="1" source="tkVCvct7On3iAIjhd6e2-19">
          <mxGeometry width="50" height="50" relative="1" as="geometry">
            <mxPoint x="400" y="240" as="sourcePoint" />
            <mxPoint x="410" y="240" as="targetPoint" />
            <Array as="points">
              <mxPoint x="500" y="270" />
              <mxPoint x="500" y="240" />
            </Array>
          </mxGeometry>
        </mxCell>
        <mxCell id="tkVCvct7On3iAIjhd6e2-30" value="code!=0" style="text;html=1;align=center;verticalAlign=middle;resizable=0;points=[];autosize=1;strokeColor=none;" vertex="1" parent="1">
          <mxGeometry x="430" y="250" width="60" height="20" as="geometry" />
        </mxCell>
        <mxCell id="tkVCvct7On3iAIjhd6e2-22" value="" style="rounded=0;whiteSpace=wrap;html=1;direction=west;" vertex="1" parent="1">
          <mxGeometry x="640" y="140" width="20" height="190" as="geometry" />
        </mxCell>
        <mxCell id="tkVCvct7On3iAIjhd6e2-32" value="认证中" style="text;html=1;align=center;verticalAlign=middle;resizable=0;points=[];autosize=1;strokeColor=none;" vertex="1" parent="1">
          <mxGeometry x="530" y="180" width="50" height="20" as="geometry" />
        </mxCell>
        <mxCell id="tkVCvct7On3iAIjhd6e2-33" value="认证完成" style="text;html=1;align=center;verticalAlign=middle;resizable=0;points=[];autosize=1;strokeColor=none;" vertex="1" parent="1">
          <mxGeometry x="265" y="280" width="60" height="20" as="geometry" />
        </mxCell>
      </root>
    </mxGraphModel>
  </diagram>
</mxfile>
